<?xml version="1.0" standalone="no"?>
<!DOCTYPE svg PUBLIC "-//W3C//DTD SVG 20010904//EN"
 "http://www.w3.org/TR/2001/REC-SVG-20010904/DTD/svg10.dtd">
<svg version="1.0" xmlns="http://www.w3.org/2000/svg"
 width="400.000000pt" height="400.000000pt" viewBox="0 0 400.000000 400.000000"
 preserveAspectRatio="xMidYMid meet">
<metadata>
Created by potrace 1.16, written by Peter Selinger 2001-2019
</metadata>
<g transform="translate(0.000000,400.000000) scale(0.100000,-0.100000)"
fill="#663AF9" stroke="none">
<path d="M1328 3115 c-98 -55 16 -329 246 -589 87 -99 231 -222 300 -258 69
-35 126 -42 441 -58 116 -6 243 -15 284 -21 113 -16 117 3 30 137 -225 344
-604 641 -979 765 -116 38 -276 50 -322 24z"/>
<path d="M1015 2129 c-206 -11 -477 -36 -529 -50 -91 -24 -112 -90 -54 -170
87 -122 266 -261 421 -326 229 -97 486 -108 717 -33 156 51 260 113 260 155 0
6 -6 19 -13 29 -12 16 -16 15 -72 -10 -142 -62 -308 -81 -445 -48 -83 19 -193
73 -250 123 -38 33 -43 42 -34 58 16 26 89 41 253 53 147 9 390 0 519 -21 153
-24 257 -94 309 -209 13 -27 18 -85 23 -245 6 -184 9 -217 29 -267 47 -122
145 -220 268 -270 57 -22 65 -23 384 -23 l325 0 76 38 c101 49 137 92 276 322
105 175 112 190 112 240 0 38 -6 61 -23 86 -30 45 -416 362 -492 404 -185 103
-435 145 -970 165 -310 11 -855 11 -1090 -1z m1954 -402 c49 -25 107 -98 97
-122 -9 -25 -86 -55 -140 -55 -62 0 -122 33 -160 89 -31 44 -29 54 17 78 75
39 128 42 186 10z"/>
</g>
</svg>
